<svg width="32" height="32" viewBox="0 0 32 32" fill="none" xmlns="http://www.w3.org/2000/svg">
<g clip-path="url(#clip0_401_112)">
<rect width="512" height="512" fill="white"/>
<path d="M32 0H0V32H32V0Z" fill="url(#paint0_linear_401_112)"/>
<ellipse cx="16" cy="16" rx="3.5625" ry="3.5625" transform="rotate(-180 16 16)" fill="white"/>
<path d="M19.5 9.07801C19.5 6.89482 21.2629 5.125 23.4375 5.125C25.6121 5.125 27.375 6.89482 27.375 9.07801C27.375 10.4207 25.9643 12.2706 25.9643 12.2706C25.9643 12.2706 23.629 15.1182 23.629 16.0145C23.629 16.9106 24.9351 18.5187 25.9643 19.7856C26.7265 20.7243 27.375 21.6454 27.375 22.922C27.375 25.1052 25.6121 26.875 23.4375 26.875C21.2629 26.875 19.5 25.1052 19.5 22.922C19.5 21.7163 20.1779 20.6848 20.9107 19.7856C21.94 18.5186 23.2461 16.9106 23.2461 16.0145C23.2461 15.1251 20.9504 12.2706 20.9504 12.2706C20.9504 12.2706 19.5 10.4814 19.5 9.07801Z" fill="white"/>
<path d="M4.625 9.07801C4.625 6.89482 6.38788 5.125 8.5625 5.125C10.7371 5.125 12.5 6.89482 12.5 9.07801C12.5 10.4207 11.0893 12.2706 11.0893 12.2706C11.0893 12.2706 8.75396 15.1182 8.75396 16.0145C8.75396 16.9106 10.0601 18.5187 11.0893 19.7856C11.8515 20.7243 12.5 21.6454 12.5 22.922C12.5 25.1052 10.7371 26.875 8.5625 26.875C6.38788 26.875 4.625 25.1052 4.625 22.922C4.625 21.7163 5.3029 20.6848 6.03572 19.7856C7.06501 18.5186 8.3711 16.9106 8.3711 16.0145C8.3711 15.1251 6.07544 12.2706 6.07544 12.2706C6.07544 12.2706 4.625 10.4814 4.625 9.07801Z" fill="white"/>
</g>
<defs>
<linearGradient id="paint0_linear_401_112" x1="13.1611" y1="3.25535" x2="9.41514" y2="34.2357" gradientUnits="userSpaceOnUse">
<stop stop-color="#070F4B"/>
<stop offset="0.338897" stop-color="#161660"/>
<stop offset="0.620267" stop-color="#322387"/>
<stop offset="1" stop-color="#5B37C0"/>
</linearGradient>
<clipPath id="clip0_401_112">
<rect width="32" height="32" fill="white"/>
</clipPath>
</defs>
</svg>
