<svg id="Capa_1" enable-background="new 0 0 512 512" height="512" viewBox="0 0 512 512" width="512" xmlns="http://www.w3.org/2000/svg" fill="white"><g><path d="m256 452c8.284 0 15-6.716 15-15v-242c0-8.284-6.716-15-15-15s-15 6.716-15 15v242c0 8.284 6.716 15 15 15z"/><path d="m346 452c8.284 0 15-6.716 15-15v-242c0-8.284-6.716-15-15-15s-15 6.716-15 15v242c0 8.284 6.716 15 15 15z"/><path d="m166 452c8.284 0 15-6.716 15-15v-242c0-8.284-6.716-15-15-15s-15 6.716-15 15v242c0 8.284 6.716 15 15 15z"/><path d="m46 150h45v347c0 8.284 6.716 15 15 15h300c8.284 0 15-6.716 15-15v-347h45c8.284 0 15-6.716 15-15s-6.716-15-15-15h-15v-45c0-8.284-6.716-15-15-15h-105v-45c0-8.284-6.716-15-15-15h-120c-8.284 0-15 6.716-15 15v45h-105c-8.284 0-15 6.716-15 15v45h-15c-8.284 0-15 6.716-15 15s6.716 15 15 15zm345 332h-270v-332h270zm-180-452h90v30h-90zm-120 60h330v30h-330z"/></g></svg>
